<svg id="visual" viewBox="0 0 1500 600" width="1500" height="600" xmlns="http://www.w3.org/2000/svg" xmlns:xlink="http://www.w3.org/1999/xlink" version="1.1"><path d="M0 163L41.7 165C83.3 167 166.7 171 250 166C333.3 161 416.7 147 500 157C583.3 167 666.7 201 750 222C833.3 243 916.7 251 1000 248C1083.3 245 1166.7 231 1250 235C1333.3 239 1416.7 261 1458.3 272L1500 283L1500 0L1458.3 0C1416.7 0 1333.3 0 1250 0C1166.7 0 1083.3 0 1000 0C916.7 0 833.3 0 750 0C666.7 0 583.3 0 500 0C416.7 0 333.3 0 250 0C166.7 0 83.3 0 41.7 0L0 0Z" fill="#603fef"></path><path d="M0 301L41.7 304C83.3 307 166.7 313 250 304C333.3 295 416.7 271 500 284C583.3 297 666.7 347 750 373C833.3 399 916.7 401 1000 394C1083.3 387 1166.7 371 1250 369C1333.3 367 1416.7 379 1458.3 385L1500 391L1500 281L1458.3 270C1416.7 259 1333.3 237 1250 233C1166.7 229 1083.3 243 1000 246C916.7 249 833.3 241 750 220C666.7 199 583.3 165 500 155C416.7 145 333.3 159 250 164C166.7 169 83.3 165 41.7 163L0 161Z" fill="#6a4cec"></path><path d="M0 529L41.7 526C83.3 523 166.7 517 250 514C333.3 511 416.7 511 500 513C583.3 515 666.7 519 750 522C833.3 525 916.7 527 1000 520C1083.3 513 1166.7 497 1250 497C1333.3 497 1416.7 513 1458.3 521L1500 529L1500 389L1458.3 383C1416.7 377 1333.3 365 1250 367C1166.7 369 1083.3 385 1000 392C916.7 399 833.3 397 750 371C666.7 345 583.3 295 500 282C416.7 269 333.3 293 250 302C166.7 311 83.3 305 41.7 302L0 299Z" fill="#7358e9"></path><path d="M0 601L41.7 601C83.3 601 166.7 601 250 601C333.3 601 416.7 601 500 601C583.3 601 666.7 601 750 601C833.3 601 916.7 601 1000 601C1083.3 601 1166.7 601 1250 601C1333.3 601 1416.7 601 1458.3 601L1500 601L1500 527L1458.3 519C1416.7 511 1333.3 495 1250 495C1166.7 495 1083.3 511 1000 518C916.7 525 833.3 523 750 520C666.7 517 583.3 513 500 511C416.7 509 333.3 509 250 512C166.7 515 83.3 521 41.7 524L0 527Z" fill="#7c64e6"></path></svg>